<?xml version="1.0" encoding="UTF-8" standalone="no"?>
<!-- Created with Inkscape (http://www.inkscape.org/) -->

<svg
   width="2732"
   height="2732"
   viewBox="0 0 722.84165 722.84166"
   version="1.1"
   id="svg5"
   xml:space="preserve"
   inkscape:version="1.2.2 (b0a8486541, 2022-12-01)"
   sodipodi:docname="splash.svg"
   inkscape:export-filename="splash.png"
   inkscape:export-xdpi="96"
   inkscape:export-ydpi="96"
   xmlns:inkscape="http://www.inkscape.org/namespaces/inkscape"
   xmlns:sodipodi="http://sodipodi.sourceforge.net/DTD/sodipodi-0.dtd"
   xmlns="http://www.w3.org/2000/svg"
   xmlns:svg="http://www.w3.org/2000/svg"><sodipodi:namedview
     id="namedview7"
     pagecolor="#ffffff"
     bordercolor="#cccccc"
     borderopacity="1"
     inkscape:showpageshadow="0"
     inkscape:pageopacity="1"
     inkscape:pagecheckerboard="0"
     inkscape:deskcolor="#d1d1d1"
     inkscape:document-units="mm"
     showgrid="false"
     inkscape:zoom="0.2973261"
     inkscape:cx="-97.536005"
     inkscape:cy="1298.2379"
     inkscape:window-width="2560"
     inkscape:window-height="1520"
     inkscape:window-x="-11"
     inkscape:window-y="-11"
     inkscape:window-maximized="1"
     inkscape:current-layer="layer1" /><defs
     id="defs2"><style
       id="style446">.cls-1,.cls-2{fill:none;}.cls-1{stroke:#434a54;stroke-linecap:round;stroke-linejoin:round;stroke-width:2px;}</style></defs><g
     inkscape:label="Layer 1"
     inkscape:groupmode="layer"
     id="layer1"><g
       id="icons"
       transform="matrix(3.2540102,0,0,3.2540102,257.29251,257.29251)"><path
         class="cls-1"
         d="M 37.71,12.83 A 20,20 0 1 1 30,12.1"
         id="path452" /><path
         class="cls-1"
         d="M 52.4,19.36 A 23.89,23.89 0 0 1 56,32"
         id="path454" /><path
         class="cls-1"
         d="M 43.77,11.08 A 24,24 0 0 1 49,15"
         id="path456" /><path
         class="cls-1"
         d="M 18.76,52 A 24.11,24.11 0 0 1 15,49"
         id="path458" /><polygon
         class="cls-1"
         points="30.44,25 44.44,25 19.56,59 34.98,31 20.98,31 33.39,5 42.39,5 "
         id="polygon460" /><rect
         class="cls-2"
         height="64"
         width="64"
         id="rect462"
         x="0"
         y="0" /></g></g></svg>
